<mxfile host="app.diagrams.net" modified="2023-10-19T15:33:21.560Z" agent="Mozilla/5.0 (X11; Ubuntu; Linux x86_64; rv:109.0) Gecko/20100101 Firefox/119.0" etag="Pb2OTpmf5IXysSVFht50" version="22.0.5" type="device">
  <diagram name="Page-1" id="tD17L8M0d384xoB9ihxO">
    <mxGraphModel dx="2532" dy="2163" grid="1" gridSize="10" guides="1" tooltips="1" connect="1" arrows="1" fold="1" page="1" pageScale="1" pageWidth="827" pageHeight="1169" math="0" shadow="0">
      <root>
        <mxCell id="0" />
        <mxCell id="1" parent="0" />
        <mxCell id="bNZZNQLA3KYNwP-jMkyL-111" value="&lt;div&gt;Notif&lt;/div&gt;&lt;div&gt;&lt;br&gt;&lt;/div&gt;" style="rounded=0;whiteSpace=wrap;html=1;fillColor=#dae8fc;strokeColor=#6c8ebf;align=left;verticalAlign=top;" vertex="1" parent="1">
          <mxGeometry x="240" y="-120" width="1160" height="120" as="geometry" />
        </mxCell>
        <mxCell id="bNZZNQLA3KYNwP-jMkyL-101" value="Auth" style="rounded=0;whiteSpace=wrap;html=1;fillColor=#fff2cc;strokeColor=#d6b656;verticalAlign=top;align=left;" vertex="1" parent="1">
          <mxGeometry x="240" y="550" width="1160" height="205" as="geometry" />
        </mxCell>
        <mxCell id="bNZZNQLA3KYNwP-jMkyL-94" value="&lt;div&gt;Common Lib&lt;br&gt;&lt;/div&gt;" style="rounded=0;whiteSpace=wrap;html=1;fillColor=#f8cecc;strokeColor=#b85450;align=left;verticalAlign=top;" vertex="1" parent="1">
          <mxGeometry x="240" y="810" width="290" height="120" as="geometry" />
        </mxCell>
        <mxCell id="bNZZNQLA3KYNwP-jMkyL-81" value="Card" style="rounded=0;whiteSpace=wrap;html=1;fillColor=#d5e8d4;strokeColor=#82b366;verticalAlign=top;align=left;" vertex="1" parent="1">
          <mxGeometry x="240" y="1012.5" width="1300" height="310" as="geometry" />
        </mxCell>
        <mxCell id="bNZZNQLA3KYNwP-jMkyL-80" value="User" style="rounded=0;whiteSpace=wrap;html=1;fillColor=#fff2cc;strokeColor=#d6b656;verticalAlign=top;align=left;" vertex="1" parent="1">
          <mxGeometry x="240" y="315" width="1160" height="205" as="geometry" />
        </mxCell>
        <mxCell id="bNZZNQLA3KYNwP-jMkyL-79" value="Store" style="rounded=0;whiteSpace=wrap;html=1;fillColor=#e1d5e7;strokeColor=#9673a6;align=left;verticalAlign=top;" vertex="1" parent="1">
          <mxGeometry x="240" y="50" width="1160" height="120" as="geometry" />
        </mxCell>
        <mxCell id="oYR7RIJHGrGza35LKqYx-52" style="edgeStyle=orthogonalEdgeStyle;rounded=0;orthogonalLoop=1;jettySize=auto;html=1;" parent="1" source="oYR7RIJHGrGza35LKqYx-4" target="oYR7RIJHGrGza35LKqYx-36" edge="1">
          <mxGeometry relative="1" as="geometry" />
        </mxCell>
        <mxCell id="bNZZNQLA3KYNwP-jMkyL-89" style="edgeStyle=orthogonalEdgeStyle;rounded=0;orthogonalLoop=1;jettySize=auto;html=1;entryX=0.077;entryY=1;entryDx=0;entryDy=0;entryPerimeter=0;" edge="1" parent="1" source="oYR7RIJHGrGza35LKqYx-4" target="bNZZNQLA3KYNwP-jMkyL-82">
          <mxGeometry relative="1" as="geometry">
            <Array as="points">
              <mxPoint x="760" y="250" />
              <mxPoint x="760" y="250" />
            </Array>
          </mxGeometry>
        </mxCell>
        <mxCell id="oYR7RIJHGrGza35LKqYx-4" value="&lt;div&gt;User Service&lt;/div&gt;" style="rounded=1;whiteSpace=wrap;html=1;" parent="1" vertex="1">
          <mxGeometry x="690" y="350" width="120" height="60" as="geometry" />
        </mxCell>
        <mxCell id="bNZZNQLA3KYNwP-jMkyL-36" style="edgeStyle=orthogonalEdgeStyle;rounded=0;orthogonalLoop=1;jettySize=auto;html=1;entryX=0;entryY=0.5;entryDx=0;entryDy=0;" edge="1" parent="1" source="oYR7RIJHGrGza35LKqYx-6" target="bNZZNQLA3KYNwP-jMkyL-23">
          <mxGeometry relative="1" as="geometry" />
        </mxCell>
        <mxCell id="oYR7RIJHGrGza35LKqYx-6" value="&lt;div&gt;CardReference Service&lt;/div&gt;" style="rounded=1;whiteSpace=wrap;html=1;" parent="1" vertex="1">
          <mxGeometry x="770" y="1127.5" width="120" height="60" as="geometry" />
        </mxCell>
        <mxCell id="bNZZNQLA3KYNwP-jMkyL-98" style="edgeStyle=orthogonalEdgeStyle;rounded=0;orthogonalLoop=1;jettySize=auto;html=1;entryX=0;entryY=0.5;entryDx=0;entryDy=0;" edge="1" parent="1" source="oYR7RIJHGrGza35LKqYx-27" target="bNZZNQLA3KYNwP-jMkyL-50">
          <mxGeometry relative="1" as="geometry">
            <Array as="points">
              <mxPoint x="185" y="220" />
              <mxPoint x="185" y="110" />
            </Array>
          </mxGeometry>
        </mxCell>
        <mxCell id="bNZZNQLA3KYNwP-jMkyL-110" value="&lt;div&gt;HTTP&lt;/div&gt;" style="edgeLabel;html=1;align=center;verticalAlign=middle;resizable=0;points=[];" vertex="1" connectable="0" parent="bNZZNQLA3KYNwP-jMkyL-98">
          <mxGeometry x="-0.6721" y="-2" relative="1" as="geometry">
            <mxPoint as="offset" />
          </mxGeometry>
        </mxCell>
        <mxCell id="bNZZNQLA3KYNwP-jMkyL-99" style="edgeStyle=orthogonalEdgeStyle;rounded=0;orthogonalLoop=1;jettySize=auto;html=1;entryX=0;entryY=0.5;entryDx=0;entryDy=0;" edge="1" parent="1" source="oYR7RIJHGrGza35LKqYx-27" target="oYR7RIJHGrGza35LKqYx-30">
          <mxGeometry relative="1" as="geometry">
            <Array as="points">
              <mxPoint x="140" y="380" />
              <mxPoint x="140" y="380" />
            </Array>
          </mxGeometry>
        </mxCell>
        <mxCell id="bNZZNQLA3KYNwP-jMkyL-109" value="HTTP" style="edgeLabel;html=1;align=center;verticalAlign=middle;resizable=0;points=[];" vertex="1" connectable="0" parent="bNZZNQLA3KYNwP-jMkyL-99">
          <mxGeometry x="-0.0613" relative="1" as="geometry">
            <mxPoint as="offset" />
          </mxGeometry>
        </mxCell>
        <mxCell id="bNZZNQLA3KYNwP-jMkyL-100" value="HTTP" style="edgeStyle=orthogonalEdgeStyle;rounded=0;orthogonalLoop=1;jettySize=auto;html=1;entryX=0;entryY=0.5;entryDx=0;entryDy=0;" edge="1" parent="1" source="oYR7RIJHGrGza35LKqYx-27" target="oYR7RIJHGrGza35LKqYx-32">
          <mxGeometry x="-0.7607" relative="1" as="geometry">
            <Array as="points">
              <mxPoint x="190" y="840" />
              <mxPoint x="190" y="1080" />
              <mxPoint x="294" y="1080" />
            </Array>
            <mxPoint as="offset" />
          </mxGeometry>
        </mxCell>
        <mxCell id="bNZZNQLA3KYNwP-jMkyL-106" style="edgeStyle=orthogonalEdgeStyle;rounded=0;orthogonalLoop=1;jettySize=auto;html=1;entryX=0;entryY=0.5;entryDx=0;entryDy=0;" edge="1" parent="1" source="oYR7RIJHGrGza35LKqYx-27" target="bNZZNQLA3KYNwP-jMkyL-102">
          <mxGeometry relative="1" as="geometry">
            <Array as="points">
              <mxPoint x="140" y="670" />
              <mxPoint x="140" y="670" />
            </Array>
          </mxGeometry>
        </mxCell>
        <mxCell id="bNZZNQLA3KYNwP-jMkyL-108" value="HTTP" style="edgeLabel;html=1;align=center;verticalAlign=middle;resizable=0;points=[];" vertex="1" connectable="0" parent="bNZZNQLA3KYNwP-jMkyL-106">
          <mxGeometry x="-0.1146" y="-3" relative="1" as="geometry">
            <mxPoint as="offset" />
          </mxGeometry>
        </mxCell>
        <mxCell id="oYR7RIJHGrGza35LKqYx-27" value="Proxy" style="rounded=0;whiteSpace=wrap;html=1;" parent="1" vertex="1">
          <mxGeometry x="50" y="195" width="40" height="685" as="geometry" />
        </mxCell>
        <mxCell id="bNZZNQLA3KYNwP-jMkyL-6" style="edgeStyle=orthogonalEdgeStyle;rounded=0;orthogonalLoop=1;jettySize=auto;html=1;entryX=0;entryY=0.5;entryDx=0;entryDy=0;" edge="1" parent="1" source="oYR7RIJHGrGza35LKqYx-30" target="bNZZNQLA3KYNwP-jMkyL-2">
          <mxGeometry relative="1" as="geometry" />
        </mxCell>
        <mxCell id="bNZZNQLA3KYNwP-jMkyL-43" style="edgeStyle=orthogonalEdgeStyle;rounded=0;orthogonalLoop=1;jettySize=auto;html=1;entryX=0.25;entryY=0;entryDx=0;entryDy=0;" edge="1" parent="1" source="oYR7RIJHGrGza35LKqYx-30" target="bNZZNQLA3KYNwP-jMkyL-41">
          <mxGeometry relative="1" as="geometry">
            <Array as="points">
              <mxPoint x="330" y="600" />
              <mxPoint x="410" y="600" />
            </Array>
          </mxGeometry>
        </mxCell>
        <mxCell id="oYR7RIJHGrGza35LKqYx-30" value="User Controller" style="rounded=1;whiteSpace=wrap;html=1;" parent="1" vertex="1">
          <mxGeometry x="280" y="350" width="120" height="60" as="geometry" />
        </mxCell>
        <mxCell id="bNZZNQLA3KYNwP-jMkyL-32" style="edgeStyle=orthogonalEdgeStyle;rounded=0;orthogonalLoop=1;jettySize=auto;html=1;entryX=0;entryY=0.5;entryDx=0;entryDy=0;" edge="1" parent="1" source="oYR7RIJHGrGza35LKqYx-32" target="bNZZNQLA3KYNwP-jMkyL-4">
          <mxGeometry relative="1" as="geometry" />
        </mxCell>
        <mxCell id="bNZZNQLA3KYNwP-jMkyL-42" style="edgeStyle=orthogonalEdgeStyle;rounded=0;orthogonalLoop=1;jettySize=auto;html=1;entryX=0;entryY=0.75;entryDx=0;entryDy=0;" edge="1" parent="1" source="oYR7RIJHGrGza35LKqYx-32" target="bNZZNQLA3KYNwP-jMkyL-41">
          <mxGeometry relative="1" as="geometry">
            <Array as="points">
              <mxPoint x="320" y="885" />
            </Array>
          </mxGeometry>
        </mxCell>
        <mxCell id="oYR7RIJHGrGza35LKqYx-32" value="&lt;div&gt;Card Controller&lt;br&gt;&lt;/div&gt;" style="rounded=1;whiteSpace=wrap;html=1;" parent="1" vertex="1">
          <mxGeometry x="294" y="1047.5" width="120" height="60" as="geometry" />
        </mxCell>
        <mxCell id="bNZZNQLA3KYNwP-jMkyL-16" style="edgeStyle=orthogonalEdgeStyle;rounded=0;orthogonalLoop=1;jettySize=auto;html=1;entryX=0;entryY=0.5;entryDx=0;entryDy=0;" edge="1" parent="1" source="oYR7RIJHGrGza35LKqYx-36" target="bNZZNQLA3KYNwP-jMkyL-15">
          <mxGeometry relative="1" as="geometry" />
        </mxCell>
        <mxCell id="oYR7RIJHGrGza35LKqYx-36" value="&lt;div&gt;UserModel (DAO)&lt;br&gt;&lt;/div&gt;" style="rounded=1;whiteSpace=wrap;html=1;" parent="1" vertex="1">
          <mxGeometry x="860" y="350" width="120" height="60" as="geometry" />
        </mxCell>
        <mxCell id="bNZZNQLA3KYNwP-jMkyL-39" style="edgeStyle=orthogonalEdgeStyle;rounded=0;orthogonalLoop=1;jettySize=auto;html=1;" edge="1" parent="1" source="oYR7RIJHGrGza35LKqYx-38" target="bNZZNQLA3KYNwP-jMkyL-38">
          <mxGeometry relative="1" as="geometry" />
        </mxCell>
        <mxCell id="oYR7RIJHGrGza35LKqYx-38" value="&lt;div&gt;Card Model&lt;/div&gt;&amp;nbsp;(DAO)" style="rounded=1;whiteSpace=wrap;html=1;" parent="1" vertex="1">
          <mxGeometry x="890" y="1047.5" width="120" height="60" as="geometry" />
        </mxCell>
        <mxCell id="bNZZNQLA3KYNwP-jMkyL-7" style="edgeStyle=orthogonalEdgeStyle;rounded=0;orthogonalLoop=1;jettySize=auto;html=1;" edge="1" parent="1" source="bNZZNQLA3KYNwP-jMkyL-2" target="oYR7RIJHGrGza35LKqYx-4">
          <mxGeometry relative="1" as="geometry" />
        </mxCell>
        <mxCell id="bNZZNQLA3KYNwP-jMkyL-107" style="edgeStyle=orthogonalEdgeStyle;rounded=0;orthogonalLoop=1;jettySize=auto;html=1;" edge="1" parent="1" source="bNZZNQLA3KYNwP-jMkyL-2" target="bNZZNQLA3KYNwP-jMkyL-41">
          <mxGeometry relative="1" as="geometry">
            <Array as="points">
              <mxPoint x="480" y="520" />
              <mxPoint x="480" y="520" />
            </Array>
          </mxGeometry>
        </mxCell>
        <mxCell id="bNZZNQLA3KYNwP-jMkyL-2" value="UserDTO" style="rounded=1;whiteSpace=wrap;html=1;" vertex="1" parent="1">
          <mxGeometry x="470" y="350" width="120" height="60" as="geometry" />
        </mxCell>
        <mxCell id="bNZZNQLA3KYNwP-jMkyL-33" style="edgeStyle=orthogonalEdgeStyle;rounded=0;orthogonalLoop=1;jettySize=auto;html=1;entryX=0;entryY=0.5;entryDx=0;entryDy=0;" edge="1" parent="1" source="bNZZNQLA3KYNwP-jMkyL-4" target="bNZZNQLA3KYNwP-jMkyL-28">
          <mxGeometry relative="1" as="geometry" />
        </mxCell>
        <mxCell id="bNZZNQLA3KYNwP-jMkyL-4" value="&lt;div&gt;CardDTO&lt;br&gt;&lt;/div&gt;" style="rounded=1;whiteSpace=wrap;html=1;" vertex="1" parent="1">
          <mxGeometry x="470" y="1047.5" width="120" height="60" as="geometry" />
        </mxCell>
        <mxCell id="bNZZNQLA3KYNwP-jMkyL-15" value="UserRepository" style="rounded=1;whiteSpace=wrap;html=1;" vertex="1" parent="1">
          <mxGeometry x="1030" y="350" width="120" height="60" as="geometry" />
        </mxCell>
        <mxCell id="bNZZNQLA3KYNwP-jMkyL-24" value="&amp;lt;&amp;lt;extends&amp;gt;&amp;gt;" style="edgeStyle=orthogonalEdgeStyle;orthogonalLoop=1;jettySize=auto;html=1;entryX=0.5;entryY=1;entryDx=0;entryDy=0;dashed=1;curved=1;" edge="1" parent="1" source="bNZZNQLA3KYNwP-jMkyL-20" target="bNZZNQLA3KYNwP-jMkyL-4">
          <mxGeometry x="0.3333" y="-30" relative="1" as="geometry">
            <mxPoint as="offset" />
          </mxGeometry>
        </mxCell>
        <mxCell id="bNZZNQLA3KYNwP-jMkyL-25" value="&amp;lt;&amp;lt;extends&amp;gt;&amp;gt;" style="edgeStyle=orthogonalEdgeStyle;orthogonalLoop=1;jettySize=auto;html=1;entryX=0.5;entryY=1;entryDx=0;entryDy=0;dashed=1;strokeColor=default;curved=1;" edge="1" parent="1" source="bNZZNQLA3KYNwP-jMkyL-20" target="oYR7RIJHGrGza35LKqYx-38">
          <mxGeometry x="0.3103" y="20" relative="1" as="geometry">
            <mxPoint as="offset" />
          </mxGeometry>
        </mxCell>
        <mxCell id="bNZZNQLA3KYNwP-jMkyL-20" value="&lt;div&gt;CardBasics&lt;br&gt;&lt;/div&gt;" style="rounded=1;whiteSpace=wrap;html=1;" vertex="1" parent="1">
          <mxGeometry x="690" y="1237.5" width="120" height="60" as="geometry" />
        </mxCell>
        <mxCell id="bNZZNQLA3KYNwP-jMkyL-37" style="edgeStyle=orthogonalEdgeStyle;rounded=0;orthogonalLoop=1;jettySize=auto;html=1;entryX=0;entryY=0.5;entryDx=0;entryDy=0;" edge="1" parent="1" source="bNZZNQLA3KYNwP-jMkyL-23" target="bNZZNQLA3KYNwP-jMkyL-29">
          <mxGeometry relative="1" as="geometry" />
        </mxCell>
        <mxCell id="bNZZNQLA3KYNwP-jMkyL-23" value="&lt;div&gt;Card Reference (DAO)&lt;br&gt;&lt;/div&gt;" style="rounded=1;whiteSpace=wrap;html=1;" vertex="1" parent="1">
          <mxGeometry x="1050" y="1127.5" width="120" height="60" as="geometry" />
        </mxCell>
        <mxCell id="bNZZNQLA3KYNwP-jMkyL-34" style="edgeStyle=orthogonalEdgeStyle;rounded=0;orthogonalLoop=1;jettySize=auto;html=1;entryX=0;entryY=0.5;entryDx=0;entryDy=0;" edge="1" parent="1" source="bNZZNQLA3KYNwP-jMkyL-28" target="oYR7RIJHGrGza35LKqYx-38">
          <mxGeometry relative="1" as="geometry" />
        </mxCell>
        <mxCell id="bNZZNQLA3KYNwP-jMkyL-35" style="edgeStyle=orthogonalEdgeStyle;rounded=0;orthogonalLoop=1;jettySize=auto;html=1;entryX=0;entryY=0.5;entryDx=0;entryDy=0;" edge="1" parent="1" source="bNZZNQLA3KYNwP-jMkyL-28" target="oYR7RIJHGrGza35LKqYx-6">
          <mxGeometry relative="1" as="geometry" />
        </mxCell>
        <mxCell id="bNZZNQLA3KYNwP-jMkyL-87" style="edgeStyle=orthogonalEdgeStyle;rounded=0;orthogonalLoop=1;jettySize=auto;html=1;entryX=0.472;entryY=1;entryDx=0;entryDy=0;entryPerimeter=0;" edge="1" parent="1" source="bNZZNQLA3KYNwP-jMkyL-124" target="bNZZNQLA3KYNwP-jMkyL-82">
          <mxGeometry relative="1" as="geometry">
            <Array as="points">
              <mxPoint x="840" y="450" />
              <mxPoint x="840" y="300" />
              <mxPoint x="914" y="300" />
            </Array>
          </mxGeometry>
        </mxCell>
        <mxCell id="bNZZNQLA3KYNwP-jMkyL-28" value="&lt;div&gt;CardModel Service&lt;/div&gt;" style="rounded=1;whiteSpace=wrap;html=1;" vertex="1" parent="1">
          <mxGeometry x="690" y="1047.5" width="120" height="60" as="geometry" />
        </mxCell>
        <mxCell id="bNZZNQLA3KYNwP-jMkyL-29" value="&lt;div&gt;Card Reference Repository&lt;br&gt;&lt;/div&gt;" style="rounded=1;whiteSpace=wrap;html=1;" vertex="1" parent="1">
          <mxGeometry x="1260" y="1127.5" width="120" height="60" as="geometry" />
        </mxCell>
        <mxCell id="bNZZNQLA3KYNwP-jMkyL-38" value="&lt;div&gt;Card Reference Repository&lt;br&gt;&lt;/div&gt;" style="rounded=1;whiteSpace=wrap;html=1;" vertex="1" parent="1">
          <mxGeometry x="1080" y="1047.5" width="120" height="60" as="geometry" />
        </mxCell>
        <mxCell id="bNZZNQLA3KYNwP-jMkyL-93" style="edgeStyle=orthogonalEdgeStyle;rounded=0;orthogonalLoop=1;jettySize=auto;html=1;" edge="1" parent="1" source="bNZZNQLA3KYNwP-jMkyL-41" target="bNZZNQLA3KYNwP-jMkyL-4">
          <mxGeometry relative="1" as="geometry">
            <Array as="points">
              <mxPoint x="480" y="950" />
              <mxPoint x="480" y="950" />
            </Array>
          </mxGeometry>
        </mxCell>
        <mxCell id="bNZZNQLA3KYNwP-jMkyL-41" value="&lt;div&gt;DTOmapper&lt;br&gt;&lt;/div&gt;" style="rounded=1;whiteSpace=wrap;html=1;" vertex="1" parent="1">
          <mxGeometry x="380" y="840" width="120" height="60" as="geometry" />
        </mxCell>
        <mxCell id="bNZZNQLA3KYNwP-jMkyL-57" style="edgeStyle=orthogonalEdgeStyle;rounded=0;orthogonalLoop=1;jettySize=auto;html=1;exitX=1;exitY=0.25;exitDx=0;exitDy=0;entryX=0;entryY=0.25;entryDx=0;entryDy=0;" edge="1" parent="1" source="bNZZNQLA3KYNwP-jMkyL-48" target="bNZZNQLA3KYNwP-jMkyL-55">
          <mxGeometry relative="1" as="geometry" />
        </mxCell>
        <mxCell id="bNZZNQLA3KYNwP-jMkyL-92" style="edgeStyle=orthogonalEdgeStyle;rounded=0;orthogonalLoop=1;jettySize=auto;html=1;entryX=0.5;entryY=0;entryDx=0;entryDy=0;" edge="1" parent="1" source="bNZZNQLA3KYNwP-jMkyL-48" target="oYR7RIJHGrGza35LKqYx-30">
          <mxGeometry relative="1" as="geometry">
            <Array as="points">
              <mxPoint x="660" y="280" />
              <mxPoint x="340" y="280" />
            </Array>
          </mxGeometry>
        </mxCell>
        <mxCell id="bNZZNQLA3KYNwP-jMkyL-130" style="edgeStyle=orthogonalEdgeStyle;rounded=0;orthogonalLoop=1;jettySize=auto;html=1;entryX=0;entryY=0.5;entryDx=0;entryDy=0;" edge="1" parent="1" source="bNZZNQLA3KYNwP-jMkyL-48" target="bNZZNQLA3KYNwP-jMkyL-119">
          <mxGeometry relative="1" as="geometry" />
        </mxCell>
        <mxCell id="bNZZNQLA3KYNwP-jMkyL-48" value="&lt;div&gt;Store Service&lt;/div&gt;" style="rounded=1;whiteSpace=wrap;html=1;" vertex="1" parent="1">
          <mxGeometry x="590" y="80" width="120" height="60" as="geometry" />
        </mxCell>
        <mxCell id="bNZZNQLA3KYNwP-jMkyL-56" style="edgeStyle=orthogonalEdgeStyle;rounded=0;orthogonalLoop=1;jettySize=auto;html=1;entryX=0;entryY=0.5;entryDx=0;entryDy=0;" edge="1" parent="1" source="bNZZNQLA3KYNwP-jMkyL-50" target="bNZZNQLA3KYNwP-jMkyL-48">
          <mxGeometry relative="1" as="geometry">
            <mxPoint x="610" y="110" as="targetPoint" />
          </mxGeometry>
        </mxCell>
        <mxCell id="bNZZNQLA3KYNwP-jMkyL-50" value="Store Controller" style="rounded=1;whiteSpace=wrap;html=1;" vertex="1" parent="1">
          <mxGeometry x="280" y="80" width="120" height="60" as="geometry" />
        </mxCell>
        <mxCell id="bNZZNQLA3KYNwP-jMkyL-72" style="edgeStyle=orthogonalEdgeStyle;rounded=0;orthogonalLoop=1;jettySize=auto;html=1;" edge="1" parent="1" source="bNZZNQLA3KYNwP-jMkyL-55" target="bNZZNQLA3KYNwP-jMkyL-71">
          <mxGeometry relative="1" as="geometry" />
        </mxCell>
        <mxCell id="bNZZNQLA3KYNwP-jMkyL-55" value="StoreRepository" style="rounded=1;whiteSpace=wrap;html=1;" vertex="1" parent="1">
          <mxGeometry x="1030" y="80" width="120" height="60" as="geometry" />
        </mxCell>
        <mxCell id="bNZZNQLA3KYNwP-jMkyL-71" value="" style="shape=cylinder3;whiteSpace=wrap;html=1;boundedLbl=1;backgroundOutline=1;size=15;" vertex="1" parent="1">
          <mxGeometry x="1260" y="70" width="60" height="80" as="geometry" />
        </mxCell>
        <mxCell id="bNZZNQLA3KYNwP-jMkyL-73" value="" style="shape=cylinder3;whiteSpace=wrap;html=1;boundedLbl=1;backgroundOutline=1;size=15;" vertex="1" parent="1">
          <mxGeometry x="1270" y="340" width="60" height="80" as="geometry" />
        </mxCell>
        <mxCell id="bNZZNQLA3KYNwP-jMkyL-74" style="edgeStyle=orthogonalEdgeStyle;rounded=0;orthogonalLoop=1;jettySize=auto;html=1;entryX=0;entryY=0.5;entryDx=0;entryDy=0;entryPerimeter=0;" edge="1" parent="1" source="bNZZNQLA3KYNwP-jMkyL-15" target="bNZZNQLA3KYNwP-jMkyL-73">
          <mxGeometry relative="1" as="geometry" />
        </mxCell>
        <mxCell id="bNZZNQLA3KYNwP-jMkyL-75" value="" style="shape=cylinder3;whiteSpace=wrap;html=1;boundedLbl=1;backgroundOutline=1;size=15;" vertex="1" parent="1">
          <mxGeometry x="1430" y="1037.5" width="60" height="80" as="geometry" />
        </mxCell>
        <mxCell id="bNZZNQLA3KYNwP-jMkyL-76" style="edgeStyle=orthogonalEdgeStyle;rounded=0;orthogonalLoop=1;jettySize=auto;html=1;entryX=0;entryY=0.5;entryDx=0;entryDy=0;entryPerimeter=0;" edge="1" parent="1" source="bNZZNQLA3KYNwP-jMkyL-38" target="bNZZNQLA3KYNwP-jMkyL-75">
          <mxGeometry relative="1" as="geometry" />
        </mxCell>
        <mxCell id="bNZZNQLA3KYNwP-jMkyL-77" style="edgeStyle=orthogonalEdgeStyle;rounded=0;orthogonalLoop=1;jettySize=auto;html=1;entryX=0.5;entryY=1;entryDx=0;entryDy=0;entryPerimeter=0;" edge="1" parent="1" source="bNZZNQLA3KYNwP-jMkyL-29" target="bNZZNQLA3KYNwP-jMkyL-75">
          <mxGeometry relative="1" as="geometry" />
        </mxCell>
        <mxCell id="bNZZNQLA3KYNwP-jMkyL-129" style="edgeStyle=orthogonalEdgeStyle;rounded=0;orthogonalLoop=1;jettySize=auto;html=1;entryX=1;entryY=0.5;entryDx=0;entryDy=0;" edge="1" parent="1" source="bNZZNQLA3KYNwP-jMkyL-82" target="bNZZNQLA3KYNwP-jMkyL-119">
          <mxGeometry relative="1" as="geometry" />
        </mxCell>
        <mxCell id="bNZZNQLA3KYNwP-jMkyL-82" value="&lt;div&gt;ESB&lt;/div&gt;&amp;nbsp;Store" style="shape=dataStorage;whiteSpace=wrap;html=1;fixedSize=1;rotation=0;" vertex="1" parent="1">
          <mxGeometry x="730" y="200" width="390" height="30" as="geometry" />
        </mxCell>
        <mxCell id="bNZZNQLA3KYNwP-jMkyL-97" value="HTTP" style="edgeStyle=orthogonalEdgeStyle;rounded=0;orthogonalLoop=1;jettySize=auto;html=1;entryX=0;entryY=0.5;entryDx=0;entryDy=0;" edge="1" parent="1" source="bNZZNQLA3KYNwP-jMkyL-96" target="oYR7RIJHGrGza35LKqYx-27">
          <mxGeometry relative="1" as="geometry" />
        </mxCell>
        <mxCell id="bNZZNQLA3KYNwP-jMkyL-96" value="Frontend" style="rounded=0;whiteSpace=wrap;html=1;" vertex="1" parent="1">
          <mxGeometry x="-190" y="507.5" width="120" height="60" as="geometry" />
        </mxCell>
        <mxCell id="bNZZNQLA3KYNwP-jMkyL-105" style="edgeStyle=orthogonalEdgeStyle;rounded=0;orthogonalLoop=1;jettySize=auto;html=1;entryX=0;entryY=0.5;entryDx=0;entryDy=0;" edge="1" parent="1" source="bNZZNQLA3KYNwP-jMkyL-102" target="bNZZNQLA3KYNwP-jMkyL-103">
          <mxGeometry relative="1" as="geometry" />
        </mxCell>
        <mxCell id="bNZZNQLA3KYNwP-jMkyL-102" value="Auth Controller" style="rounded=1;whiteSpace=wrap;html=1;" vertex="1" parent="1">
          <mxGeometry x="260" y="640" width="120" height="60" as="geometry" />
        </mxCell>
        <mxCell id="bNZZNQLA3KYNwP-jMkyL-104" style="edgeStyle=orthogonalEdgeStyle;rounded=0;orthogonalLoop=1;jettySize=auto;html=1;" edge="1" parent="1" source="bNZZNQLA3KYNwP-jMkyL-103">
          <mxGeometry relative="1" as="geometry">
            <mxPoint x="370" y="410" as="targetPoint" />
            <Array as="points">
              <mxPoint x="520" y="570" />
              <mxPoint x="370" y="570" />
              <mxPoint x="370" y="410" />
            </Array>
          </mxGeometry>
        </mxCell>
        <mxCell id="bNZZNQLA3KYNwP-jMkyL-103" value="Auth Service" style="rounded=1;whiteSpace=wrap;html=1;" vertex="1" parent="1">
          <mxGeometry x="580" y="640" width="120" height="60" as="geometry" />
        </mxCell>
        <mxCell id="bNZZNQLA3KYNwP-jMkyL-115" style="edgeStyle=orthogonalEdgeStyle;rounded=0;orthogonalLoop=1;jettySize=auto;html=1;" edge="1" parent="1" source="bNZZNQLA3KYNwP-jMkyL-112" target="oYR7RIJHGrGza35LKqYx-27">
          <mxGeometry relative="1" as="geometry" />
        </mxCell>
        <mxCell id="bNZZNQLA3KYNwP-jMkyL-112" value="Notif Service" style="rounded=1;whiteSpace=wrap;html=1;" vertex="1" parent="1">
          <mxGeometry x="310" y="-90" width="120" height="60" as="geometry" />
        </mxCell>
        <mxCell id="bNZZNQLA3KYNwP-jMkyL-117" style="edgeStyle=orthogonalEdgeStyle;rounded=0;orthogonalLoop=1;jettySize=auto;html=1;entryX=0.5;entryY=1;entryDx=0;entryDy=0;" edge="1" parent="1" source="bNZZNQLA3KYNwP-jMkyL-114" target="bNZZNQLA3KYNwP-jMkyL-116">
          <mxGeometry relative="1" as="geometry" />
        </mxCell>
        <mxCell id="bNZZNQLA3KYNwP-jMkyL-114" value="&lt;div&gt;ESB&lt;/div&gt;&lt;div&gt;&amp;nbsp;Notif&lt;/div&gt;" style="shape=dataStorage;whiteSpace=wrap;html=1;fixedSize=1;rotation=0;" vertex="1" parent="1">
          <mxGeometry x="590" y="10" width="390" height="30" as="geometry" />
        </mxCell>
        <mxCell id="bNZZNQLA3KYNwP-jMkyL-118" style="edgeStyle=orthogonalEdgeStyle;rounded=0;orthogonalLoop=1;jettySize=auto;html=1;entryX=1;entryY=0.5;entryDx=0;entryDy=0;" edge="1" parent="1" source="bNZZNQLA3KYNwP-jMkyL-116" target="bNZZNQLA3KYNwP-jMkyL-112">
          <mxGeometry relative="1" as="geometry" />
        </mxCell>
        <mxCell id="bNZZNQLA3KYNwP-jMkyL-116" value="Notif Service Listenner" style="rounded=1;whiteSpace=wrap;html=1;" vertex="1" parent="1">
          <mxGeometry x="510" y="-90" width="120" height="60" as="geometry" />
        </mxCell>
        <mxCell id="bNZZNQLA3KYNwP-jMkyL-121" style="edgeStyle=orthogonalEdgeStyle;rounded=0;orthogonalLoop=1;jettySize=auto;html=1;entryX=0.5;entryY=1;entryDx=0;entryDy=0;" edge="1" parent="1" source="bNZZNQLA3KYNwP-jMkyL-119" target="bNZZNQLA3KYNwP-jMkyL-114">
          <mxGeometry relative="1" as="geometry">
            <Array as="points">
              <mxPoint x="785" y="60" />
            </Array>
          </mxGeometry>
        </mxCell>
        <mxCell id="bNZZNQLA3KYNwP-jMkyL-119" value="Store Handler" style="rounded=1;whiteSpace=wrap;html=1;" vertex="1" parent="1">
          <mxGeometry x="760" y="100" width="120" height="60" as="geometry" />
        </mxCell>
        <mxCell id="bNZZNQLA3KYNwP-jMkyL-131" style="edgeStyle=orthogonalEdgeStyle;rounded=0;orthogonalLoop=1;jettySize=auto;html=1;entryX=0.5;entryY=1;entryDx=0;entryDy=0;" edge="1" parent="1" target="oYR7RIJHGrGza35LKqYx-4">
          <mxGeometry relative="1" as="geometry">
            <mxPoint x="905.0000000000005" y="457.5" as="sourcePoint" />
            <mxPoint x="755.0000000000005" y="390" as="targetPoint" />
            <Array as="points">
              <mxPoint x="905" y="490" />
              <mxPoint x="756" y="490" />
              <mxPoint x="756" y="430" />
              <mxPoint x="750" y="430" />
            </Array>
          </mxGeometry>
        </mxCell>
        <mxCell id="bNZZNQLA3KYNwP-jMkyL-135" style="edgeStyle=orthogonalEdgeStyle;rounded=0;orthogonalLoop=1;jettySize=auto;html=1;" edge="1" parent="1" source="bNZZNQLA3KYNwP-jMkyL-124" target="bNZZNQLA3KYNwP-jMkyL-86">
          <mxGeometry relative="1" as="geometry" />
        </mxCell>
        <mxCell id="bNZZNQLA3KYNwP-jMkyL-124" value="User Handler" style="rounded=1;whiteSpace=wrap;html=1;" vertex="1" parent="1">
          <mxGeometry x="900" y="447.5" width="120" height="60" as="geometry" />
        </mxCell>
        <mxCell id="bNZZNQLA3KYNwP-jMkyL-132" value="" style="edgeStyle=orthogonalEdgeStyle;rounded=0;orthogonalLoop=1;jettySize=auto;html=1;entryX=0.073;entryY=0.983;entryDx=0;entryDy=0;entryPerimeter=0;" edge="1" parent="1" target="bNZZNQLA3KYNwP-jMkyL-86">
          <mxGeometry relative="1" as="geometry">
            <mxPoint x="724.9999999999995" y="1047.5" as="sourcePoint" />
            <mxPoint x="900" y="493" as="targetPoint" />
            <Array as="points">
              <mxPoint x="781" y="1048" />
            </Array>
          </mxGeometry>
        </mxCell>
        <mxCell id="bNZZNQLA3KYNwP-jMkyL-86" value="&lt;div&gt;ESB&lt;/div&gt;&amp;nbsp;User" style="shape=dataStorage;whiteSpace=wrap;html=1;fixedSize=1;rotation=0;" vertex="1" parent="1">
          <mxGeometry x="750" y="870" width="420" height="30" as="geometry" />
        </mxCell>
        <mxCell id="bNZZNQLA3KYNwP-jMkyL-137" style="edgeStyle=orthogonalEdgeStyle;rounded=0;orthogonalLoop=1;jettySize=auto;html=1;exitX=0;exitY=0;exitDx=0;exitDy=0;entryX=0.2;entryY=1.025;entryDx=0;entryDy=0;entryPerimeter=0;" edge="1" parent="1" source="oYR7RIJHGrGza35LKqYx-4">
          <mxGeometry relative="1" as="geometry">
            <mxPoint x="730.0000000000005" y="359.25" as="sourcePoint" />
            <mxPoint x="600.0000000000005" y="40" as="targetPoint" />
          </mxGeometry>
        </mxCell>
      </root>
    </mxGraphModel>
  </diagram>
</mxfile>
